<svg width="26" height="26" viewBox="0 0 26 26" fill="none" xmlns="http://www.w3.org/2000/svg">
<g clip-path="url(#clip0)">
<path d="M23.9374 3.68561C22.5915 2.22585 20.7447 1.42188 18.7369 1.42188C17.2361 1.42188 15.8616 1.89636 14.6516 2.83205C14.041 3.30435 13.4878 3.88219 13 4.55663C12.5124 3.88239 11.959 3.30435 11.3482 2.83205C10.1384 1.89636 8.76393 1.42188 7.26311 1.42188C5.25526 1.42188 3.40829 2.22585 2.06239 3.68561C0.732559 5.12831 0 7.09926 0 9.23564C0 11.4345 0.819443 13.4473 2.57874 15.5702C4.15256 17.4691 6.41451 19.3969 9.03391 21.629C9.92833 22.3914 10.9422 23.2554 11.9949 24.1758C12.273 24.4194 12.6299 24.5535 13 24.5535C13.3699 24.5535 13.727 24.4194 14.0047 24.1762C15.0574 23.2556 16.0719 22.3912 16.9667 21.6284C19.5857 19.3967 21.8476 17.4691 23.4215 15.57C25.1808 13.4473 26 11.4345 26 9.23544C26 7.09926 25.2674 5.12831 23.9374 3.68561Z" fill="#D8CBF9"/>
</g>
<defs>
<clipPath id="clip0">
<rect width="26" height="26" fill="white"/>
</clipPath>
</defs>
</svg>
