<svg width="20" height="20" viewBox="0 0 20 20" fill="none" xmlns="http://www.w3.org/2000/svg">
<path fill-rule="evenodd" clip-rule="evenodd" d="M20 10C20 4.47758 15.5224 0 10 0C4.47758 0 0 4.47758 0 10C0 14.9909 3.65634 19.1281 8.43765 19.8791V12.8913H5.8979V10H8.43765V7.79635C8.43765 5.29035 9.9311 3.90517 12.2149 3.90517C13.3089 3.90517 14.4537 4.10064 14.4537 4.10064V6.56165H13.1922C11.9505 6.56165 11.5623 7.33229 11.5623 8.124V9.99992H14.3355L13.8925 12.8912H11.5623V19.879C16.3436 19.1294 19.9999 14.9922 19.9999 9.99992L20 10Z" fill="#703EF0"/>
<path fill-rule="evenodd" clip-rule="evenodd" d="M13.8922 12.8917L14.3352 10.0004H11.5621V8.12447C11.5621 7.33414 11.9488 6.56212 13.192 6.56212H14.4534V4.10111C14.4534 4.10111 13.3088 3.90564 12.2146 3.90564C9.93084 3.90564 8.43739 5.28944 8.43739 7.79682V10.0005H5.89763V12.8918H8.43739V19.8796C8.94644 19.9596 9.46817 20.0005 9.99974 20.0005C10.5313 20.0005 11.0531 19.9583 11.5621 19.8796V12.8918H13.8923L13.8922 12.8917Z" fill="white"/>
</svg>
