<svg width="18" height="19" viewBox="0 0 18 19" fill="none" xmlns="http://www.w3.org/2000/svg">
<path d="M14.3962 7.07806L2.30689 12.9517C1.59605 13.2971 1.23606 14.116 1.50441 14.7771L1.82886 15.5765C2.09721 16.2377 2.89384 16.4946 3.60468 16.1492L15.694 10.2756C16.4048 9.9302 16.7648 9.11132 16.4965 8.45016L16.172 7.65078C15.9037 6.98962 15.107 6.73269 14.3962 7.07806ZM6.31689 13.8745L3.28023 15.3499C3.04329 15.465 2.77774 15.3793 2.68829 15.1589L2.36384 14.3596C2.27439 14.1392 2.39439 13.8662 2.63134 13.7511L5.66799 12.2757L6.31689 13.8745ZM12.3615 10.9376L7.17632 13.4569L6.52742 11.8582L11.7127 9.33889L12.3615 10.9376ZM14.0804 10.1025L13.221 10.5201L12.5721 8.92133L13.4315 8.50377L14.0804 10.1025ZM15.637 8.86772C15.7265 9.08811 15.6065 9.36106 15.3696 9.47619L14.9398 9.68496L14.2909 8.08621L14.7207 7.87743C14.9576 7.76231 15.2231 7.84795 15.3126 8.06834L15.637 8.86772Z" fill="#848484"/>
<path d="M10.2379 3.70606C9.66264 2.84592 8.46638 2.56806 7.38271 3.10403L6.59089 3.49565C5.46146 4.05425 4.77698 5.2764 4.99869 6.33851C5.28612 7.71551 6.78625 8.33083 8.15039 7.65615L11.6973 5.90189C11.9418 5.78098 12.2149 5.86715 12.3061 6.09397C12.3975 6.32115 12.6701 6.40714 12.9149 6.28604C13.1598 6.16494 13.2842 5.88258 13.1928 5.65541L12.862 4.83269C12.4576 3.82726 11.3384 3.37461 10.2379 3.70606ZM11.3664 5.07918L7.81951 6.83344C7.0242 7.22678 6.10613 6.89581 5.92704 6.03773C5.79464 5.40349 6.22229 4.66431 6.92177 4.31836L7.71359 3.92674C8.447 3.564 9.26633 3.8225 9.54 4.50296C9.63137 4.73014 9.90395 4.81614 10.1488 4.69504C10.748 4.3987 11.4044 4.51696 11.774 4.94121C11.6378 4.9672 11.5007 5.01279 11.3664 5.07918Z" fill="#848484"/>
</svg>
