<svg width="16" height="16" viewBox="0 0 16 16" fill="none" xmlns="http://www.w3.org/2000/svg">
<path d="M12.9344 0V0.979594H14.114L11.8129 3.02362C10.9982 2.24269 9.86226 1.75706 8.60739 1.75706C6.91936 1.75706 5.44638 2.63556 4.68154 3.93003C4.61603 3.92734 4.55018 3.92572 4.48393 3.92572C2.01148 3.92572 0 5.81006 0 8.12628C0 10.2768 1.7341 12.0547 3.96107 12.2981V13.5999H2.39566V14.5795H3.96114V16H5.00682V14.5794H6.64061V13.5998H5.00682V12.2981C6.47285 12.1378 7.72513 11.3127 8.40981 10.1538C8.47532 10.1565 8.54114 10.1581 8.60735 10.1581C11.0798 10.1581 13.0913 8.27378 13.0913 5.95759C13.0913 5.1705 12.8588 4.43341 12.4551 3.80309L14.9543 1.58316V2.79981H16V0H12.9344ZM4.484 11.3472C2.58814 11.3472 1.04575 9.90228 1.04575 8.12622C1.04575 6.41937 2.47032 5.01866 4.26406 4.91206C4.1723 5.24644 4.12346 5.59675 4.12346 5.95759C4.12346 7.84709 5.4622 9.44903 7.29774 9.97516C6.67507 10.8043 5.646 11.3472 4.484 11.3472ZM7.76799 9.08125C6.27657 8.72937 5.16918 7.46244 5.16918 5.95759C5.16918 5.62522 5.22322 5.30444 5.32346 5.00256C6.81488 5.35444 7.92227 6.62141 7.92227 8.12625C7.92227 8.45862 7.8682 8.77938 7.76799 9.08125ZM8.82735 9.17172C8.91912 8.83734 8.96796 8.48706 8.96796 8.12622C8.96796 6.23672 7.62922 4.63478 5.79371 4.10862C6.41638 3.2795 7.44548 2.73659 8.60746 2.73659C10.5033 2.73659 12.0457 4.1815 12.0457 5.95756C12.0457 7.66441 10.6211 9.06516 8.82735 9.17172Z" fill="#848484"/>
</svg>
