<svg width="17" height="18" viewBox="0 0 17 18" fill="none" xmlns="http://www.w3.org/2000/svg">
<path d="M16.0762 13.5863L16.2246 13.4987L16.1175 13.3638L15.9391 13.139L15.9391 13.139C14.9379 11.8777 14.3871 10.3158 14.3871 8.74194V6.41935C14.3871 3.34045 11.738 0.85 8.5 0.85C5.26201 0.85 2.61292 3.34045 2.61292 6.41935V8.74194C2.61292 10.3158 2.0621 11.8777 1.06091 13.139L1.0609 13.139L0.882508 13.3638L0.775389 13.4987L0.923827 13.5863L1.17562 13.7347C1.17566 13.7347 1.17571 13.7347 1.17575 13.7348C1.24546 13.7761 2.40274 14.4407 4.86335 14.8227C4.73227 14.942 4.59385 15.0556 4.448 15.1627L4.44796 15.1627L4.00539 15.4879L3.92308 15.5484L3.94918 15.6471L4.3169 17.0383L4.34641 17.15H4.46192H12.5381H12.6536L12.6831 17.0384L13.0511 15.6474L13.0772 15.5486L12.9949 15.4881L12.5524 15.163C12.5523 15.163 12.5523 15.163 12.5523 15.163C12.4064 15.0557 12.268 14.9422 12.137 14.8229C14.5944 14.4414 15.752 13.7778 15.8243 13.7347C15.8244 13.7347 15.8245 13.7346 15.8247 13.7345L16.0762 13.5863ZM12.0389 15.8122L12.039 15.8123L12.1186 15.8707L11.9959 16.3339H5.00409L4.88142 15.8707L4.96104 15.8123L4.96108 15.8122C6.29874 14.8292 7.12076 13.3909 7.26163 11.8101C7.65315 11.9243 8.06817 11.9887 8.5 11.9887C8.93181 11.9887 9.34683 11.9243 9.73838 11.8099C9.87928 13.3907 10.7013 14.8293 12.0389 15.8122ZM5.09848 7.96774V6.67742C5.09848 6.34136 5.39087 6.05323 5.76806 6.05323H7.13731C8.82052 6.05323 10.4658 5.60789 11.8945 4.76498C11.896 4.76507 11.8988 4.76563 11.9018 4.76718V7.96772C11.9018 7.96773 11.9018 7.96773 11.9018 7.96774C11.9015 9.72678 10.3836 11.1726 8.5 11.1726C6.61642 11.1726 5.09848 9.72677 5.09848 7.96774ZM14.9689 13.2343C14.4079 13.4702 13.2646 13.8629 11.4746 14.0904C10.9154 13.3296 10.5979 12.4289 10.5664 11.4782C11.8631 10.7918 12.7479 9.479 12.7479 7.96774V4.75613C12.7479 4.30174 12.3595 3.94677 11.8999 3.94677C11.7426 3.94677 11.5886 3.98837 11.4537 4.06799C10.1588 4.83246 8.66594 5.2371 7.13731 5.2371H5.76806C4.94019 5.2371 4.25209 5.87516 4.25209 6.67742V7.96774C4.25209 9.479 5.1369 10.7918 6.43358 11.4782C6.4021 12.4289 6.08481 13.3298 5.52567 14.0904C3.74307 13.8634 2.59549 13.4697 2.03202 13.2335C2.95503 11.9085 3.45931 10.3319 3.45931 8.74194V6.41935C3.45931 3.80639 5.71242 1.66613 8.5 1.66613C11.2876 1.66613 13.5407 3.80639 13.5407 6.41935V8.74194C13.5407 10.3325 14.045 11.9092 14.9689 13.2343Z" fill="#848484" stroke="#848484" stroke-width="0.3"/>
</svg>
