<svg width="16" height="16" viewBox="0 0 16 16" fill="none" xmlns="http://www.w3.org/2000/svg">
<path d="M13.5 5.5C13.5 5.081 13.455 4.673 13.367 4.289C13.365 4.279 13.362 4.269 13.359 4.259L12.487 0.39C12.437 0.162 12.233 0 12 0H4C3.766 0 3.563 0.162 3.512 0.39L2.641 4.257C2.638 4.267 2.635 4.278 2.633 4.289C2.544 4.673 2.5 5.081 2.5 5.5C2.5 8.364 4.701 10.721 7.5 10.975V15H5.5C5.224 15 5 15.224 5 15.5C5 15.776 5.224 16 5.5 16H10.5C10.776 16 11 15.776 11 15.5C11 15.224 10.776 15 10.5 15H8.5V10.975C11.299 10.721 13.5 8.364 13.5 5.5ZM3.553 5C3.57 4.846 3.569 4.685 3.601 4.54C3.604 4.529 3.607 4.518 3.61 4.506L4.4 1H11.601L12.391 4.506C12.393 4.516 12.396 4.527 12.399 4.537C12.431 4.684 12.43 4.846 12.447 5H3.553Z" fill="#848484"/>
</svg>
