<svg width="16" height="16" viewBox="0 0 16 16" fill="none" xmlns="http://www.w3.org/2000/svg">
<path d="M13.5 0H2.5C1.11997 0.00165625 0.00165625 1.11997 0 2.5V13.5C0.00165625 14.88 1.11997 15.9983 2.5 16H13.5C14.88 15.9983 15.9983 14.88 16 13.5V2.5C15.9983 1.11997 14.88 0.00165625 13.5 0ZM15 13.5C15 14.3284 14.3284 15 13.5 15H8.5V12H7.5V15H2.5C1.67156 15 1 14.3284 1 13.5V2.5C1 1.67156 1.67156 1 2.5 1H13.5C14.3284 1 15 1.67156 15 2.5V13.5Z" fill="#848484"/>
<path d="M8.00025 2.99991H8.06025L8.07125 1.99991H8.00025C7.66444 1.99954 7.32906 2.0236 6.99675 2.07191L7.14125 3.06141C7.42575 3.02035 7.71281 2.99982 8.00025 2.99991Z" fill="#848484"/>
<path d="M6.25016 3.26738L5.94466 2.31738C5.60016 2.4277 5.26563 2.56704 4.94466 2.73388L5.40566 3.62138C5.67675 3.47995 5.95925 3.36154 6.25016 3.26738Z" fill="#848484"/>
<path d="M9.14222 2.09341L8.97722 3.07991C10.0857 3.25985 11.1093 3.78473 11.9022 4.57991L10.6912 6.99991H8.93422L10.4162 4.77741L9.58422 4.22241L7.73272 6.99991H5.30922L4.10022 4.57841C4.26678 4.40901 4.44541 4.25195 4.63472 4.10841L4.02722 3.31241C3.68209 3.56804 3.37062 3.86623 3.10022 4.19991L2.91472 4.44991L4.69122 7.99991H11.3092L13.0867 4.44191L12.8957 4.19191C11.9369 3.06473 10.6047 2.31991 9.14222 2.09341Z" fill="#848484"/>
</svg>
