<svg width="16" height="16" viewBox="0 0 16 16" fill="none" xmlns="http://www.w3.org/2000/svg">
<path d="M15.9984 11.5575C15.9875 11.4142 15.9219 11.2824 15.8175 11.1945L12.9284 8.76298C12.7406 8.60499 12.4744 8.62488 12.3081 8.80924L12.0671 9.07645L11.3709 8.46119L10.549 1.42873C10.5487 1.42627 10.5484 1.42378 10.548 1.42132C10.4423 0.611029 9.79711 0 9.04724 0C8.6413 0 8.27243 0.175389 8.00002 0.45996C7.72761 0.175389 7.35874 0 6.9528 0C6.20293 0 5.55771 0.611029 5.45199 1.42132C5.45165 1.42378 5.45134 1.42627 5.45109 1.42873L4.62915 8.46126L3.93297 9.07652L3.69197 8.8093C3.52572 8.62491 3.2594 8.60503 3.07169 8.76305L0.182536 11.1946C0.0781298 11.2824 0.0124737 11.4142 0.00159874 11.5576C-0.00927624 11.701 0.0356924 11.8427 0.125411 11.9481L3.43656 15.8367C3.5235 15.9388 3.64487 15.9978 3.77259 15.9999C3.77503 16 3.77747 16 3.7799 16C3.905 16 4.02503 15.9454 4.11312 15.8482L6.75877 12.9295C6.93915 12.7305 6.93952 12.4102 6.75958 12.2108L6.60677 12.0413L7.99999 10.5207L9.39317 12.0413L9.24036 12.2108C9.06042 12.4103 9.0608 12.7305 9.24117 12.9295L11.8868 15.8482C11.9749 15.9454 12.0949 16 12.22 16C12.2225 16 12.2249 16 12.2274 15.9999C12.3551 15.9978 12.4764 15.9388 12.5634 15.8367L15.8745 11.9481C15.9643 11.8427 16.0093 11.7009 15.9984 11.5575ZM3.7905 14.7492L1.16203 11.6624L3.31519 9.85014L5.76699 12.5687L3.7905 14.7492ZM7.37411 9.75668L5.94912 11.3121L4.59371 9.80918L5.36524 9.12734C5.45909 9.04438 5.51999 8.92514 5.53527 8.79443L6.38049 1.5625C6.42209 1.25484 6.66762 1.02327 6.95277 1.02327C7.27174 1.02327 7.53124 1.30651 7.53124 1.65466V9.3426C7.53124 9.49902 7.47543 9.64607 7.37411 9.75668ZM8.62593 9.75672C8.52458 9.64607 8.46877 9.49899 8.46877 9.34257V1.65466C8.46877 1.30651 8.72827 1.02327 9.04724 1.02327C9.33242 1.02327 9.57792 1.25484 9.61952 1.5625L10.4647 8.79443C10.48 8.92514 10.5409 9.04438 10.6348 9.12734L11.4063 9.80918L10.0509 11.3121L8.62593 9.75672ZM12.2095 14.7492L10.233 12.5687L12.6848 9.85014L14.8379 11.6624L12.2095 14.7492Z" fill="#848484"/>
</svg>
