<svg width="16" height="16" viewBox="0 0 16 16" fill="none" xmlns="http://www.w3.org/2000/svg">
<path d="M15.3885 6.70781C14.7843 6.29366 13.9898 6.41978 13.5348 6.93894V2.34375C13.5348 1.35472 12.5331 0.6695 11.6101 1.03691C11.4474 0.440156 10.9009 0 10.2533 0C9.7559 0 9.31836 0.259719 9.06824 0.650406C8.13677 0.123469 6.97174 0.799 6.97174 1.875V1.95563C6.05758 1.63144 5.09658 2.31366 5.09658 3.28125V4.44112C4.75368 4.62069 4.49371 4.93744 4.38993 5.31816C3.4664 4.95056 2.46521 5.63672 2.46521 6.625V10.2827C2.00993 9.76319 1.21537 9.63762 0.611491 10.0516C-0.028228 10.4901 -0.192603 11.3677 0.245178 12.0079C1.6739 14.0973 1.57005 13.9586 1.64177 14.0178L3.40277 15.4709V15.5312C3.40277 15.7901 3.61265 16 3.87155 16C4.13046 16 4.34033 15.7901 4.34033 15.5312V15.25C4.34033 15.1101 4.27783 14.9775 4.16993 14.8885L2.28968 13.3369L1.01912 11.4788C0.872772 11.2648 0.927709 10.9714 1.14152 10.8248C1.35637 10.6776 1.6494 10.7325 1.7964 10.9475L2.5469 12.0457C2.66287 12.2155 2.87608 12.2898 3.07237 12.2291C3.2688 12.1684 3.40274 11.9868 3.40274 11.7812V6.625C3.40274 6.36653 3.61302 6.15625 3.87152 6.15625C4.11558 6.15625 4.3403 6.3465 4.3403 6.64062V9.4375C4.3403 9.69637 4.55018 9.90625 4.80908 9.90625C5.06799 9.90625 5.27787 9.69637 5.27787 9.4375C5.27787 8.96391 5.27787 6.03713 5.27787 5.6875C5.27787 5.42903 5.48815 5.21875 5.74665 5.21875C6.00515 5.21875 6.21543 5.42903 6.21543 5.6875V9.4375C6.21543 9.69637 6.4253 9.90625 6.68421 9.90625C6.94312 9.90625 7.15299 9.69637 7.15299 9.4375C7.15299 9.12791 7.15299 6.48844 7.15299 6.15625C7.15299 5.89778 7.36327 5.6875 7.62177 5.6875C7.88027 5.6875 8.09055 5.89778 8.09055 6.15625V9.4375C8.09055 9.69637 8.30043 9.90625 8.55933 9.90625C8.81824 9.90625 9.02811 9.69637 9.02811 9.4375C9.02811 9.12638 9.02811 8.20247 9.02811 7.875C9.02811 7.61653 9.2384 7.40625 9.4969 7.40625C9.7554 7.40625 9.96568 7.61653 9.96568 7.875V12.3304C9.96568 13.0602 9.68146 13.7463 9.1654 14.2623C9.07746 14.3502 9.02808 14.4694 9.02808 14.5938V15.5312C9.02808 15.7901 9.23796 16 9.49686 16C9.75577 16 9.96565 15.7901 9.96565 15.5312V14.7804C10.5717 14.1063 10.9032 13.2439 10.9032 12.3304V7.875C10.9032 7.19806 10.4224 6.63144 9.78427 6.49837C9.78427 6.02319 9.78427 1.51081 9.78427 1.40625C9.78427 1.14778 9.99455 0.9375 10.2531 0.9375C10.5116 0.9375 10.7218 1.14778 10.7218 1.40625V5.6875C10.7218 5.94637 10.9317 6.15625 11.1906 6.15625C11.4495 6.15625 11.6594 5.94637 11.6594 5.6875V2.35938C11.6594 2.06319 11.8863 1.875 12.1282 1.875C12.3866 1.875 12.597 2.08528 12.597 2.34375V8.4375C12.597 8.64306 12.7309 8.82466 12.9273 8.88534C13.1238 8.94603 13.3368 8.87169 13.4528 8.70197L14.2033 7.60378C14.3503 7.38875 14.6433 7.33384 14.8581 7.48109C15.072 7.62769 15.1269 7.92103 14.9806 8.13503L13.7059 9.99922L12.0064 11.4915C11.9051 11.5805 11.8469 11.7089 11.8469 11.8438V15.5312C11.8469 15.7901 12.0568 16 12.3157 16C12.5746 16 12.7845 15.7901 12.7845 15.5312V12.056C14.5106 10.5403 14.3993 10.6462 14.4466 10.5771L15.7546 8.66419C16.1926 8.02394 16.0282 7.14634 15.3885 6.70781ZM6.03418 4.31087V3.28125C6.03418 3.02278 6.24446 2.8125 6.50296 2.8125C6.76146 2.8125 6.97174 3.02278 6.97174 3.28125V4.90987C6.95827 4.91694 6.94496 4.92419 6.93174 4.93166C6.73118 4.61834 6.41012 4.38928 6.03418 4.31087ZM7.9093 4.77962C7.9093 3.808 7.9093 2.84122 7.9093 1.875C7.9093 1.61653 8.11958 1.40625 8.37808 1.40625C8.63658 1.40625 8.84686 1.61653 8.84686 1.875V5.46678C8.65065 5.11953 8.31133 4.86344 7.9093 4.77962Z" fill="#848484"/>
<path d="M2.23048 2.89395C2.41351 3.07701 2.71038 3.07704 2.89344 2.89395C3.07654 2.71089 3.07654 2.41411 2.89344 2.23105L2.23713 1.5748C2.05407 1.39173 1.75723 1.39173 1.57416 1.5748C1.39107 1.75786 1.39107 2.05464 1.57416 2.2377L2.23048 2.89395Z" fill="#848484"/>
<path d="M4.07054 1.55059C4.13757 1.80065 4.3946 1.94906 4.64473 1.88203C4.89482 1.81503 5.0432 1.55799 4.9762 1.30793L4.7362 0.412306C4.66917 0.162213 4.41223 0.013869 4.16201 0.080869C3.91192 0.147869 3.76354 0.4049 3.83054 0.654963L4.07054 1.55059Z" fill="#848484"/>
<path d="M0.411352 4.73673L1.30707 4.97673C1.55726 5.04376 1.81426 4.89526 1.88126 4.6453C1.94826 4.39523 1.79985 4.1382 1.54979 4.0712L0.654071 3.8312C0.404102 3.76417 0.146915 3.91258 0.0798834 4.16264C0.0128834 4.4127 0.16129 4.66973 0.411352 4.73673Z" fill="#848484"/>
</svg>
