<svg width="16" height="18" viewBox="0 0 16 18" fill="none" xmlns="http://www.w3.org/2000/svg">
<path d="M3.21452 8.54511L3.21452 8.5451C3.16056 8.30554 3.30819 8.06591 3.54597 8.0108M3.21452 8.54511L13.1093 8.05951C12.8989 8.01058 12.6893 8.14421 12.6412 8.35758L12.5925 8.34658L12.5925 8.34659L11.2563 14.2733C11.2422 14.336 11.2416 14.4009 11.2545 14.4638L11.3035 14.4537L11.2545 14.4638L11.6036 16.1575L5.06292 16.1576L5.41204 14.4638L5.36307 14.4537L5.41204 14.4638C5.42499 14.4009 5.42441 14.336 5.41028 14.2733L4.07411 8.34658C4.02005 8.10678 3.78418 7.95558 3.54597 8.0108M3.21452 8.54511L4.52924 14.3768L4.16219 16.1576H2.5417L1.8367 6.76057C1.77112 5.88692 2.36174 5.10542 3.20921 4.94156L5.23388 4.55045L5.23389 4.55045C6.13758 4.37577 6.79265 3.57235 6.79265 2.64082V2.64081L6.79245 1.84259L9.87407 1.84244V2.64082C9.87407 3.5724 10.5291 4.37577 11.4329 4.55045L11.4424 4.50135L11.4329 4.55045L13.4575 4.94156C14.3049 5.10536 14.8955 5.88692 14.83 6.76057L14.1251 16.1575L3.21452 8.54511ZM3.54597 8.0108L3.55726 8.05951L3.54597 8.0108C3.54597 8.0108 3.54597 8.0108 3.54597 8.0108ZM13.6227 4.06484L13.6132 4.11394L13.6227 4.06484L11.5982 3.67373C11.1106 3.5795 10.7558 3.14547 10.7558 2.64082V1.79243C10.7558 1.32849 10.3834 0.95 9.92428 0.95H6.74244C6.28325 0.95 5.91096 1.32855 5.91096 1.79243V2.64082C5.91096 3.14542 5.55618 3.57945 5.06862 3.67373L3.04395 4.06484L3.04395 4.06484C1.75447 4.31403 0.858062 5.50239 0.957528 6.82818L1.66605 16.2715L1.66605 16.2716C1.69887 16.7077 2.06235 17.05 2.4952 17.05H14.1715C14.6045 17.05 14.9679 16.7076 15.0006 16.2715L15.7092 6.82818C15.8086 5.50239 14.9122 4.31403 13.6227 4.06484Z" fill="#848484" stroke="#848484" stroke-width="0.1"/>
<path d="M8.33354 5.67723C8.13262 5.67723 7.97086 5.84225 7.97086 6.04427V12.9105C7.97086 13.1125 8.13262 13.2775 8.33354 13.2775C8.53445 13.2775 8.69621 13.1125 8.69621 12.9105V6.04427C8.69621 5.8422 8.5345 5.67723 8.33354 5.67723Z" fill="#848484" stroke="#848484" stroke-width="0.1"/>
</svg>
