<svg width="12" height="18" viewBox="0 0 12 18" fill="none" xmlns="http://www.w3.org/2000/svg">
<path d="M7.34925 15.8846L7.34925 15.8846C7.5603 15.9695 7.66253 16.2096 7.57805 16.4209C7.41305 16.8337 7.0164 17.1 6.56913 17.1H5.43069C4.98343 17.1 4.58679 16.8337 4.42175 16.4209L4.42175 16.4209C4.3373 16.2096 4.43952 15.9695 4.65058 15.8846L4.65068 15.8846C4.86182 15.7999 5.10144 15.9026 5.18596 16.1141M7.34925 15.8846L6.56913 16.275H5.43069C5.32159 16.275 5.2237 16.2085 5.18596 16.1141M7.34925 15.8846C7.13807 15.7997 6.89836 15.9027 6.81387 16.1141L7.34925 15.8846ZM5.18596 16.1141L5.09311 16.1512L5.18596 16.1141C5.18596 16.1141 5.18596 16.1141 5.18596 16.1141Z" fill="#848484" stroke="#848484" stroke-width="0.2"/>
<path d="M8.77057 8.89633C9.22541 9.13524 9.63282 9.4601 9.96923 9.85567C10.4572 10.4295 10.7744 11.1278 10.8865 11.8751C10.9582 12.3524 10.8191 12.8361 10.505 13.202C10.505 13.202 10.505 13.202 10.505 13.202L8.77057 8.89633ZM8.77057 8.89633C9.33428 8.2484 9.67644 7.40147 9.67644 6.47593C9.67641 4.84237 8.6114 3.45376 7.14105 2.97126C7.30358 2.73132 7.39111 2.44838 7.39111 2.15227C7.39114 1.46193 6.83113 0.9 6.14207 0.9H6.14207H6.14206H6.14206H6.14206H6.14205H6.14205H6.14204H6.14204H6.14204H6.14203H6.14203H6.14202H6.14202H6.14202H6.14201H6.14201H6.14201H6.142H6.142H6.14199H6.14199H6.14199H6.14198H6.14198C5.86488 0.9 5.60185 0.990358 5.40297 1.15843M8.77057 8.89633L5.40297 1.15843M5.40297 1.15843C5.40297 1.15843 5.40297 1.15843 5.40298 1.15843L5.46748 1.23476L5.40297 1.15843ZM5.9337 1.78905L5.86914 1.71268L5.93369 1.78906L5.9337 1.78905ZM5.9337 1.78905C5.97851 1.75119 6.05066 1.72496 6.14201 1.72496H6.14204C6.3765 1.72496 6.56788 1.91644 6.56788 2.1522C6.56788 2.3227 6.50188 2.48242 6.38174 2.60289L5.9337 1.78905ZM10.1033 15.1649L10.1034 15.1649C10.2489 14.9784 10.3067 14.738 10.2617 14.5053C10.2167 14.2727 10.0736 14.0714 9.86907 13.953C9.74376 13.8805 9.60316 13.8435 9.46176 13.8435C9.37239 13.8435 9.28266 13.8583 9.19617 13.8882C8.97298 13.9653 8.79426 14.1355 8.70592 14.3553L8.30108 15.3624C8.17854 15.6673 8.30053 16.0217 8.58408 16.1858C8.58408 16.1858 8.58408 16.1858 8.58408 16.1858L10.1033 15.1649ZM10.1033 15.1649L9.43603 16.0201M10.1033 15.1649L9.43603 16.0201M9.43603 16.0201C9.43603 16.0201 9.43603 16.0201 9.43602 16.0201L9.43603 16.0201ZM11.0699 14.3484C10.9885 13.9274 10.7468 13.5574 10.399 13.3142L2.10685 9.92042C1.63096 10.48 1.32161 11.161 1.21222 11.8899C1.14491 12.3385 1.27558 12.793 1.57072 13.1368L1.49484 13.202C1.49484 13.202 1.49484 13.202 1.49484 13.202C1.52859 13.2413 1.564 13.2787 1.60084 13.3141C1.25302 13.5574 1.01139 13.9274 0.929994 14.3484C0.839657 14.8155 0.955571 15.2984 1.248 15.6731L1.32678 15.6116L1.24801 15.6731L1.91536 16.5283C2.20477 16.8991 2.64397 17.098 3.08882 17.098C3.34162 17.098 3.59677 17.0338 3.82763 16.9002C4.46478 16.5313 4.73735 15.7381 4.4624 15.0542L4.05756 14.0471L3.96478 14.0844L4.05756 14.0471C4.0499 14.028 4.04187 14.0092 4.03352 13.9906H6.15575C6.38336 13.9906 6.56738 13.8056 6.56738 13.5781C6.56738 13.3505 6.38336 13.1656 6.15575 13.1656H3.37767V12.6068C3.37767 12.5769 3.40197 12.553 3.43108 12.553H8.56882C8.59792 12.553 8.62223 12.5769 8.62223 12.6068V13.2509C8.31752 13.4332 8.07726 13.7113 7.94228 14.0471L8.03506 14.0844L7.94228 14.0471L7.53744 15.0542C7.2625 15.7381 7.53506 16.5313 8.17221 16.9002L8.22232 16.8136L8.17222 16.9002C8.4031 17.0338 8.65816 17.098 8.91102 17.098C9.35584 17.098 9.7951 16.8991 10.0845 16.5283L10.0057 16.4667L10.0845 16.5283L10.7518 15.6731C10.7518 15.6731 10.7518 15.6731 10.7518 15.6731C11.0443 15.2983 11.1602 14.8155 11.0699 14.3484ZM2.32343 6.4759C2.32343 7.40144 2.66559 8.24837 3.2293 8.8963L6.38174 2.6029C6.2616 2.72334 6.10248 2.78941 5.93278 2.78941H5.93278H5.93277H5.93277H5.93276H5.93276H5.93276H5.93275H5.93275H5.93275H5.93274H5.93274H5.93273H5.93273H5.93273H5.93272H5.93272C5.92199 2.78941 5.91178 2.79016 5.90508 2.79067C3.92119 2.84136 2.32346 4.47516 2.32343 6.4759ZM2.56388 16.0201L2.48504 16.0816L2.56388 16.0201L1.89652 15.165L1.81769 15.2265L1.89652 15.165C1.75093 14.9784 1.69321 14.738 1.73821 14.5054C1.78321 14.2727 1.92636 14.0715 2.13087 13.9531L2.08076 13.8665L2.13087 13.9531C2.33531 13.8347 2.58056 13.8111 2.80378 13.8882C3.02696 13.9654 3.20567 14.1356 3.29402 14.3553C3.29402 14.3554 3.29402 14.3554 3.29402 14.3554L3.69885 15.3625C3.82136 15.6673 3.69935 16.0217 3.41582 16.1859L3.46592 16.2724L3.41581 16.1859C3.13243 16.35 2.76572 16.2788 2.56388 16.0201ZM9.8809 12.664L9.95678 12.7291L9.8809 12.664C9.76605 12.7978 9.61334 12.8899 9.44546 12.93V12.6068C9.44546 12.2719 9.25766 11.9806 8.9825 11.8324V11.5155C8.9825 11.288 8.79848 11.103 8.57088 11.103C8.34327 11.103 8.15925 11.288 8.15925 11.5155V11.728H3.84268V11.5155C3.84268 11.288 3.65866 11.103 3.43105 11.103C3.20344 11.103 3.01942 11.288 3.01942 11.5155V11.8312C2.74312 11.9791 2.55438 12.2711 2.55438 12.6068V12.93C2.38651 12.8899 2.23381 12.7978 2.11893 12.664C1.96129 12.4803 1.89147 12.2375 1.92743 11.9977C2.09782 10.862 2.84356 9.92115 3.89376 9.49575C4.4906 9.9155 5.21708 10.1624 5.99994 10.1624C6.78279 10.1624 7.50927 9.9155 8.10612 9.49575C9.15631 9.92115 9.90205 10.862 10.0724 11.9977C10.1084 12.2375 10.0386 12.4803 9.8809 12.664ZM3.14666 6.47593C3.14669 4.89795 4.42704 3.61447 5.99994 3.61444C7.57283 3.61447 8.85318 4.89795 8.85321 6.47593C8.85321 8.05391 7.5729 9.3374 5.99993 9.33743C4.42701 9.3374 3.14666 8.05391 3.14666 6.47593Z" fill="#848484" stroke="#848484" stroke-width="0.2"/>
<path d="M7.6848 13.8694C7.76142 13.7926 7.80521 13.6866 7.80521 13.578C7.80521 13.4693 7.76138 13.3633 7.68471 13.2864C7.60805 13.2095 7.50219 13.1655 7.39358 13.1655L7.10236 13.8694C7.17925 13.9469 7.28523 13.9905 7.39358 13.9905C7.50194 13.9905 7.60792 13.9469 7.6848 13.8694ZM7.6848 13.8694C7.68477 13.8694 7.68473 13.8695 7.6847 13.8695L7.61391 13.7989L7.6849 13.8693C7.68487 13.8693 7.68483 13.8694 7.6848 13.8694Z" fill="#848484" stroke="#848484" stroke-width="0.2"/>
<path d="M5.28378 6.18424L5.28379 6.18425C5.44439 6.34533 5.4444 6.60636 5.28378 6.76743C5.20347 6.84796 5.0979 6.88834 4.99262 6.88834C4.88733 6.88834 4.78181 6.84796 4.70149 6.76746C4.70149 6.76745 4.70148 6.76745 4.70148 6.76745L5.28378 6.18424ZM5.28378 6.18424C4.96203 5.86159 4.4386 5.8616 4.11679 6.18423L4.11678 6.18424M5.28378 6.18424L4.11678 6.18424M4.11678 6.18424C3.95618 6.34529 3.95613 6.6063 4.11678 6.7674L4.11678 6.18424Z" fill="#848484" stroke="#848484" stroke-width="0.2"/>
<path d="M6.34301 7.52642L6.34303 7.5264C6.48613 7.34944 6.74545 7.32203 6.92215 7.46567L6.34301 7.52642ZM6.34301 7.52642C6.25834 7.63119 6.13344 7.69087 5.99993 7.69087M6.34301 7.52642L5.99993 7.69087M5.07771 7.46567L5.07772 7.46566C5.25438 7.32216 5.51372 7.3493 5.65685 7.52642L5.07771 7.46567ZM5.07771 7.46567C4.90116 7.60913 4.87413 7.86875 5.01713 8.04567L5.07771 7.46567ZM5.99993 7.69087C5.86643 7.69087 5.7415 7.63116 5.65686 7.52643L5.99993 7.69087ZM5.01713 8.04567C5.25849 8.34429 5.61692 8.51583 5.99993 8.51583C6.38295 8.51583 6.74141 8.34425 6.98274 8.04566C7.12573 7.86876 7.09871 7.60915 6.92217 7.46569L5.01713 8.04567Z" fill="#848484" stroke="#848484" stroke-width="0.2"/>
<path d="M7.88401 6.18421L7.88403 6.18423C8.04462 6.34531 8.04464 6.6063 7.88403 6.76736C7.88402 6.76737 7.88402 6.76737 7.88402 6.76737L7.81321 6.69676C7.69152 6.81882 7.49419 6.81885 7.3725 6.69679L7.88401 6.18421ZM7.88401 6.18421C7.56223 5.86161 7.03877 5.8616 6.71701 6.18421L6.71701 6.18422M7.88401 6.18421L6.71701 6.18422M6.71701 6.18422C6.55639 6.34528 6.5564 6.6063 6.71699 6.76739L6.71701 6.18422ZM7.29931 6.76743C7.29997 6.76677 7.30112 6.76683 7.30169 6.7674L6.717 6.76739C6.79733 6.84799 6.90292 6.88832 7.00817 6.88832C7.11345 6.88832 7.21902 6.84794 7.29934 6.7674L7.22853 6.69679L7.29931 6.76743Z" fill="#848484" stroke="#848484" stroke-width="0.2"/>
</svg>
